<svg width="20" height="20" viewBox="0 0 20 20" fill="none" xmlns="http://www.w3.org/2000/svg">
<path fill-rule="evenodd" clip-rule="evenodd" d="M7.22253 7.8475C6.93986 7.8475 6.65995 7.90317 6.3988 8.01135C6.13765 8.11952 5.90036 8.27807 5.70048 8.47795C5.5006 8.67783 5.34205 8.91512 5.23388 9.17627C5.1257 9.43742 5.07003 9.71733 5.07003 10C5.07003 10.2827 5.1257 10.5626 5.23388 10.8237C5.34205 11.0849 5.5006 11.3222 5.70048 11.522C5.90036 11.7219 6.13765 11.8805 6.3988 11.9886C6.65995 12.0968 6.93986 12.1525 7.22253 12.1525H9.37503V7.8475H7.22253ZM9.37503 6.5975H7.22253C6.65154 6.5975 6.10394 6.37067 5.70018 5.96692C5.29643 5.56317 5.06961 5.01557 5.06961 4.44458C5.06961 3.87359 5.29643 3.32599 5.70018 2.92224C6.10394 2.51849 6.65154 2.29166 7.22253 2.29166H9.37503V6.5975ZM10.625 2.29166V6.5975H12.7775C13.3412 6.58641 13.878 6.35471 14.2727 5.95217C14.6674 5.54962 14.8885 5.00834 14.8885 4.44458C14.8885 3.88082 14.6674 3.33954 14.2727 2.93699C13.878 2.53445 13.3412 2.30275 12.7775 2.29166H10.625ZM12.7775 7.84666C12.2125 7.84659 11.6701 8.06868 11.2674 8.46499C10.8647 8.8613 10.634 9.40006 10.625 9.965V10.0342C10.6319 10.4583 10.764 10.871 11.0047 11.2203C11.2454 11.5697 11.5839 11.8401 11.9778 11.9977C12.3716 12.1552 12.8033 12.1929 13.2185 12.1059C13.6337 12.019 14.014 11.8113 14.3115 11.5089C14.6091 11.2065 14.8106 10.823 14.8909 10.4064C14.9711 9.98983 14.9265 9.55884 14.7626 9.16756C14.5987 8.77627 14.3229 8.44214 13.9697 8.20714C13.6165 7.97213 13.2017 7.84672 12.7775 7.84666ZM7.22253 13.4025C6.7966 13.4023 6.3802 13.5285 6.02597 13.765C5.67175 14.0015 5.39562 14.3378 5.23251 14.7312C5.0694 15.1247 5.02664 15.5577 5.10963 15.9754C5.19263 16.3932 5.39765 16.7769 5.69876 17.0782C5.99988 17.3794 6.38356 17.5846 6.80129 17.6677C7.21902 17.7509 7.65203 17.7083 8.04555 17.5453C8.43907 17.3824 8.77542 17.1064 9.01207 16.7522C9.24872 16.3981 9.37503 15.9818 9.37503 15.5558V13.4025H7.22253Z" fill="white"/>
</svg>
