<svg width="24" height="24" viewBox="0 0 24 24" fill="none" xmlns="http://www.w3.org/2000/svg">
<path d="M12.0001 1.6V15.2M12.0001 15.2V18.4C12.0001 19.0329 11.8124 19.6516 11.4608 20.1778C11.1092 20.7041 10.6094 21.1142 10.0247 21.3564C9.43996 21.5986 8.79655 21.662 8.17581 21.5385C7.55507 21.415 6.98489 21.1103 6.53736 20.6627C6.08983 20.2152 5.78506 19.645 5.66159 19.0243C5.53811 18.4035 5.60148 17.7601 5.84368 17.1754C6.08588 16.5907 6.49604 16.0909 7.02227 15.7393C7.54851 15.3877 8.1672 15.2 8.8001 15.2M12.0001 15.2H8.8001M8.8001 15.2C7.95141 15.2 7.13747 14.8629 6.53736 14.2627C5.93724 13.6626 5.6001 12.8487 5.6001 12C5.6001 11.1513 5.93724 10.3374 6.53736 9.73726C7.13747 9.13714 7.95141 8.8 8.8001 8.8M8.8001 8.8H12.0001M8.8001 8.8H15.2001M8.8001 8.8C7.95141 8.8 7.13747 8.46286 6.53736 7.86274C5.93724 7.26262 5.6001 6.44869 5.6001 5.6C5.6001 4.75131 5.93724 3.93737 6.53736 3.33726C7.13747 2.73714 7.95141 2.4 8.8001 2.4H15.2001C16.0488 2.4 16.8627 2.73714 17.4628 3.33726C18.063 3.93737 18.4001 4.75131 18.4001 5.6C18.4001 6.44869 18.063 7.26262 17.4628 7.86274C16.8627 8.46286 16.0488 8.8 15.2001 8.8M15.2001 8.8C16.0488 8.8 16.8627 9.13714 17.4628 9.73726C18.063 10.3374 18.4001 11.1513 18.4001 12C18.4001 12.8487 18.063 13.6626 17.4628 14.2627C16.8627 14.8629 16.0488 15.2 15.2001 15.2C14.3514 15.2 13.5375 14.8629 12.9374 14.2627C12.3372 13.6626 12.0001 12.8487 12.0001 12C12.0001 11.1513 12.3372 10.3374 12.9374 9.73726C13.5375 9.13714 14.3514 8.8 15.2001 8.8Z" stroke="white"/>
</svg>
