<svg width="20" height="20" viewBox="0 0 20 20" fill="none" xmlns="http://www.w3.org/2000/svg">
<g clip-path="url(#clip0_411_31)">
<path d="M19.6225 9.10872L10.89 0.377466C10.7705 0.257843 10.6285 0.16295 10.4723 0.0982072C10.316 0.0334644 10.1485 0.000141144 9.97941 0.000141144C9.81028 0.000141144 9.64281 0.0334644 9.48656 0.0982072C9.33031 0.16295 9.18835 0.257843 9.06879 0.377466L7.25629 2.18997L9.55629 4.48997C9.82754 4.39735 10.1194 4.38286 10.3985 4.44815C10.6776 4.51344 10.9327 4.65588 11.1347 4.85921C11.3367 5.06254 11.4775 5.31856 11.541 5.59807C11.6045 5.87758 11.5881 6.16931 11.4938 6.43997L13.71 8.65747C14.0379 8.54202 14.3954 8.54167 14.7235 8.65647C15.0516 8.77128 15.3308 8.9944 15.5152 9.28909C15.6996 9.58378 15.7781 9.93248 15.7379 10.2778C15.6976 10.623 15.541 10.9443 15.2938 11.1887C15.0435 11.4405 14.7136 11.5976 14.3604 11.6332C14.0071 11.6688 13.6525 11.5806 13.3571 11.3837C13.0616 11.1868 12.8437 10.8935 12.7405 10.5538C12.6373 10.2141 12.6553 9.84914 12.7913 9.52122L10.725 7.45372V12.895C11.0391 13.0504 11.2904 13.3088 11.4371 13.6271C11.5837 13.9454 11.6168 14.3043 11.5309 14.6441C11.445 14.9838 11.2453 15.2839 10.9649 15.4942C10.6846 15.7045 10.3407 15.8124 9.99049 15.7999C9.64027 15.7874 9.30491 15.6553 9.04032 15.4255C8.77573 15.1957 8.59789 14.8822 8.53643 14.5372C8.47498 14.1921 8.53363 13.8365 8.7026 13.5295C8.87158 13.2225 9.14068 12.9826 9.46504 12.85V7.35872C9.2779 7.28203 9.10779 7.16907 8.96452 7.02633C8.82124 6.8836 8.70763 6.71392 8.63024 6.52707C8.55286 6.34022 8.51322 6.1399 8.51361 5.93766C8.514 5.73542 8.55442 5.53526 8.63254 5.34872L6.36629 3.08122L0.37879 9.06872C0.259167 9.18828 0.164274 9.33024 0.0995309 9.48649C0.0347881 9.64274 0.00146484 9.81021 0.00146484 9.97934C0.00146484 10.1485 0.0347881 10.3159 0.0995309 10.4722C0.164274 10.6284 0.259167 10.7704 0.37879 10.89L9.11129 19.6225C9.23085 19.7421 9.37281 19.837 9.52906 19.9017C9.68531 19.9665 9.85278 19.9998 10.0219 19.9998C10.191 19.9998 10.3585 19.9665 10.5148 19.9017C10.671 19.837 10.813 19.7421 10.9325 19.6225L19.6238 10.9312C19.7434 10.8117 19.8383 10.6697 19.903 10.5134C19.9678 10.3572 20.0011 10.1897 20.0011 10.0206C20.0011 9.85146 19.9678 9.68399 19.903 9.52774C19.8383 9.37149 19.7434 9.22953 19.6238 9.10997" fill="white"/>
</g>
<defs>
<clipPath id="clip0_411_31">
<rect width="20" height="20" fill="white"/>
</clipPath>
</defs>
</svg>
