<svg width="24" height="24" viewBox="0 0 24 24" fill="none" xmlns="http://www.w3.org/2000/svg">
<path d="M5.625 1H18.375C20.9293 1 23 3.07068 23 5.625V18.375C23 20.9293 20.9293 23 18.375 23H5.625C3.07068 23 1 20.9293 1 18.375V5.625C1 3.07068 3.07068 1 5.625 1Z" stroke="white" stroke-width="2"/>
<path d="M11.6002 14.2812H7.88016L7.12012 16.6313C7.10015 16.7213 7.02019 16.7813 6.93019 16.7712H5.05012C4.94016 16.7712 4.91016 16.7112 4.94016 16.5912L8.16019 7.32122C8.19019 7.22128 8.22019 7.11122 8.26012 6.99122C8.30016 6.78122 8.32012 6.56128 8.32012 6.34125C8.31019 6.29128 8.35012 6.24122 8.40019 6.23128H10.9901C11.0702 6.23128 11.1101 6.26128 11.1202 6.31125L14.7701 16.6113C14.8001 16.7213 14.7701 16.7712 14.6702 16.7712H12.5801C12.5102 16.7813 12.4402 16.7313 12.4202 16.6613L11.6002 14.2812ZM8.46019 12.2513H11.0002C10.9402 12.0413 10.8602 11.7912 10.7702 11.5313C10.6802 11.2613 10.5902 10.9713 10.5002 10.6713C10.4002 10.3613 10.3102 10.0613 10.2101 9.75122C10.1102 9.44128 10.0202 9.15122 9.94012 8.86125C9.86016 8.58131 9.79012 8.32125 9.72019 8.08125H9.70012C9.61012 8.51128 9.50015 8.94131 9.36019 9.37125C9.21019 9.85125 9.06019 10.3512 8.90015 10.8513C8.77103 11.3233 8.62427 11.7903 8.46019 12.2513ZM17.0002 7.98122C16.6702 7.99125 16.3502 7.86122 16.1102 7.63125C15.8802 7.38122 15.7602 7.05122 15.7702 6.71128C15.7602 6.37125 15.8902 6.05128 16.1302 5.82122C16.3702 5.59116 16.6902 5.47125 17.0202 5.47125C17.4102 5.47125 17.7102 5.59125 17.9302 5.82122C18.1518 6.06365 18.2702 6.38295 18.2602 6.71128C18.2702 7.05122 18.1502 7.38122 17.9102 7.63125C17.6802 7.87125 17.3402 8.00128 17.0002 7.98122ZM15.8802 16.6613V8.96128C15.8802 8.86125 15.9202 8.82122 16.0102 8.82122H17.9902C18.0802 8.82122 18.1202 8.87128 18.1202 8.96128V16.6613C18.1202 16.7712 18.0802 16.8213 17.9902 16.8213H16.0302C15.9302 16.8213 15.8802 16.7613 15.8802 16.6613Z" fill="white"/>
</svg>
