<svg width="20" height="20" viewBox="0 0 20 20" fill="none" xmlns="http://www.w3.org/2000/svg">
<rect x="0.5" y="0.5" width="19" height="19" stroke="white"/>
<path d="M9.69177 11.9832H6.59255L5.96193 13.989C5.95335 14.0256 5.93257 14.058 5.90318 14.0806C5.87378 14.1032 5.83762 14.1145 5.80091 14.1127H4.23115C4.14167 14.1127 4.11037 14.0623 4.13724 13.9615L6.8206 6.04808C6.84742 5.96568 6.87425 5.87181 6.90107 5.76648C6.93623 5.58312 6.95419 5.39688 6.95474 5.21008C6.95291 5.19701 6.95408 5.18369 6.95816 5.17116C6.96223 5.15864 6.96909 5.14726 6.9782 5.13792C6.98731 5.12858 6.99842 5.12155 7.01065 5.11737C7.02288 5.11319 7.03589 5.11198 7.04865 5.11384H9.18193C9.24443 5.11384 9.28021 5.13677 9.28927 5.18264L12.3348 13.9753C12.3616 14.067 12.3348 14.1128 12.2544 14.1127H10.5101C10.4802 14.1161 10.4501 14.1082 10.4254 14.0905C10.4007 14.0728 10.3832 14.0465 10.376 14.0166L9.69177 11.9832ZM7.07552 10.2522H9.19537L9.16513 10.15L9.11662 9.98824L9.08201 9.87464L9.02677 9.69576L8.90935 9.3192L8.80607 8.98536L8.53787 8.11576C8.47111 7.89959 8.40704 7.68255 8.34568 7.46472L8.29662 7.28792L8.23927 7.07888L8.15177 6.75488L8.13537 6.69384H8.12201C8.05485 7.0236 7.9731 7.35007 7.87701 7.67224L7.67794 8.32792L7.56841 8.69016L7.45787 9.05688C7.43792 9.12312 7.418 9.18861 7.3981 9.25336L7.33872 9.4452L7.27966 9.63256L7.22091 9.81528L7.16248 9.99344C7.1431 10.0521 7.12375 10.11 7.10443 10.167L7.07552 10.2522ZM14.1459 6.57016C14.0091 6.57576 13.8726 6.55174 13.7455 6.49966C13.6183 6.44758 13.5033 6.36861 13.408 6.26792C13.313 6.1628 13.2392 6.03951 13.1909 5.90512C13.1425 5.77074 13.1205 5.6279 13.1262 5.4848C13.1214 5.34312 13.1457 5.202 13.1977 5.07062C13.2498 4.93925 13.3283 4.82059 13.4281 4.7224C13.6207 4.53309 13.8772 4.42715 14.1441 4.42664L14.1727 4.42696C14.4947 4.42696 14.7474 4.52541 14.9308 4.72232C15.0234 4.82466 15.0953 4.94468 15.1425 5.07551C15.1897 5.20635 15.2112 5.34543 15.2058 5.4848C15.2115 5.62848 15.1889 5.77186 15.1394 5.90641C15.0898 6.04097 15.0143 6.16393 14.9174 6.268C14.8196 6.3667 14.7035 6.44438 14.5759 6.49645C14.4483 6.54852 14.3119 6.57393 14.1746 6.5712L14.1459 6.57016ZM13.2201 13.9753V7.40824C13.2201 7.32578 13.2559 7.28456 13.3275 7.28456H14.9778C15.0493 7.28456 15.0851 7.32578 15.0851 7.40824V13.9753C15.0851 14.067 15.0493 14.1128 14.9778 14.1127H13.3409C13.2647 14.1127 13.2245 14.0716 13.2205 13.9894L13.2201 13.9753Z" fill="white"/>
</svg>
