<svg width="24" height="24" viewBox="0 0 24 24" fill="none" xmlns="http://www.w3.org/2000/svg">
<path d="M0 0V24H24V0H0ZM12.8571 18.6429C12.8571 20.9791 11.4771 22.118 9.47946 22.118C7.67518 22.118 6.62786 21.1838 6.09643 20.0561L7.93286 18.9445C8.28696 19.5729 8.55589 20.1043 9.32893 20.1043C9.97179 20.1043 10.5 19.8145 10.5 18.6868V11.1429H12.8571V18.6429ZM18.1795 22.0645C16.0854 22.0645 14.7321 21.1195 14.0716 19.8145L15.9107 18.75C16.3929 19.5396 17.0223 20.0657 18.1339 20.0657C19.0682 20.0657 19.6109 19.6521 19.6109 19.0077C19.6109 18.2346 19.0521 17.9609 18.0209 17.5077L17.4573 17.2655C15.8298 16.5734 14.7509 15.7034 14.7509 13.8664C14.7509 12.1752 16.0393 10.9398 18.053 10.9398C19.4871 10.9398 20.5173 11.3855 21.2593 12.6905L19.5 13.8214C19.1132 13.1287 18.6964 12.8571 18.0504 12.8571C17.3898 12.8571 16.9709 13.2761 16.9709 13.8214C16.9709 14.498 17.3898 14.7718 18.3563 15.1907L18.9198 15.4323C20.8371 16.2541 21.9166 17.093 21.9166 18.9766C21.9171 21.007 20.3223 22.0645 18.1795 22.0645Z" fill="white"/>
</svg>
