<svg width="24" height="24" viewBox="0 0 24 24" fill="none" xmlns="http://www.w3.org/2000/svg">
<g clip-path="url(#clip0_388_33)">
<path d="M3.98438 1H20.0156C21.6416 1 23 2.35647 23 4.08V19.8816C23 21.6051 21.6416 22.9616 20.0156 22.9616H3.98438C2.35838 22.9616 1 21.6051 1 19.8816V4.08C1 2.35647 2.35838 1 3.98438 1Z" stroke="white" stroke-width="2"/>
<path d="M12.6038 16.9353H6.26041C6.15297 16.9353 6.09931 16.8748 6.09944 16.7538V6.28512C6.09662 6.26497 6.09842 6.24442 6.1047 6.2251C6.11098 6.20578 6.12157 6.18823 6.13562 6.17383C6.14968 6.15943 6.16681 6.14858 6.18567 6.14213C6.20453 6.13569 6.2246 6.13383 6.24428 6.1367H8.20853C8.22384 6.13449 8.23944 6.13596 8.25411 6.14098C8.26877 6.14601 8.28209 6.15445 8.29302 6.16565C8.30395 6.17685 8.31219 6.1905 8.31708 6.20552C8.32197 6.22054 8.32339 6.23652 8.32122 6.25219V14.8581H12.9419C13.0384 14.8581 13.076 14.9076 13.0547 15.0064L12.7648 16.7869C12.7641 16.8112 12.7579 16.8351 12.7468 16.8565C12.7356 16.878 12.7197 16.8965 12.7004 16.9106C12.6705 16.9264 12.6374 16.9349 12.6038 16.9354M14.1976 8.74157H15.9525C16.0503 8.74253 16.1358 8.80973 16.1617 8.9065C16.2001 8.97871 16.2273 9.05655 16.2423 9.13728C16.2647 9.24346 16.2808 9.35062 16.2905 9.45878C16.3012 9.57418 16.3065 9.69782 16.3067 9.82973C16.6076 9.47085 16.9705 9.17184 17.3773 8.94768C17.8342 8.69468 18.3472 8.5669 18.8666 8.57674C18.8863 8.57386 18.9063 8.57572 18.9252 8.58216C18.9441 8.58861 18.9612 8.59946 18.9753 8.61386C18.9893 8.62826 18.9999 8.64582 19.0062 8.66513C19.0125 8.68445 19.0143 8.705 19.0114 8.72515V10.72C19.0114 10.797 18.9578 10.8355 18.8505 10.8354C18.2019 10.7943 17.5532 10.913 16.9587 11.1816C16.7567 11.2712 16.5736 11.4 16.4193 11.5608V16.787C16.4193 16.8859 16.3764 16.9354 16.2905 16.9354H14.3424C14.3205 16.9386 14.2982 16.9365 14.2773 16.9294C14.2563 16.9222 14.2373 16.9102 14.2217 16.8942C14.206 16.8782 14.1943 16.8587 14.1873 16.8372C14.1803 16.8158 14.1783 16.7929 14.1814 16.7705V11.0991C14.1814 10.9611 14.1806 10.8185 14.1788 10.6713L14.1755 10.4472C14.1749 10.4092 14.1742 10.371 14.1734 10.3326C14.1693 10.1321 14.1637 9.9317 14.1567 9.73133L14.1492 9.53299C14.1421 9.30649 14.1206 9.0807 14.0849 8.85706C14.0811 8.84211 14.0809 8.82645 14.0844 8.81143C14.0879 8.79641 14.0949 8.78249 14.1049 8.77088C14.1148 8.75927 14.1273 8.75032 14.1414 8.74481C14.1555 8.7393 14.1707 8.7374 14.1857 8.73926L14.1976 8.74157Z" fill="white"/>
</g>
<defs>
<clipPath id="clip0_388_33">
<rect width="24" height="24" fill="white"/>
</clipPath>
</defs>
</svg>
