<svg width="20" height="20" viewBox="0 0 20 20" fill="none" xmlns="http://www.w3.org/2000/svg">
<rect x="0.5" y="0.5" width="19" height="19" stroke="white"/>
<path d="M10.5034 14.1127H5.21725C5.12772 14.1127 5.08301 14.0623 5.08311 13.9615V5.2376C5.08076 5.2208 5.08226 5.20368 5.0875 5.18758C5.09273 5.17148 5.10155 5.15686 5.11326 5.14486C5.12498 5.13286 5.13926 5.12381 5.15497 5.11844C5.17069 5.11307 5.18741 5.11152 5.20381 5.11392H6.84069C6.85345 5.11208 6.86645 5.1133 6.87867 5.11748C6.89089 5.12167 6.90199 5.12871 6.9111 5.13804C6.9202 5.14737 6.92707 5.15875 6.93114 5.17126C6.93522 5.18378 6.9364 5.19709 6.93459 5.21016V12.3818H10.7851C10.8656 12.3818 10.8969 12.423 10.8791 12.5054L10.6376 13.9891C10.637 14.0094 10.6319 14.0292 10.6225 14.0471C10.6132 14.065 10.6 14.0804 10.5839 14.0922C10.559 14.1054 10.5314 14.1124 10.5034 14.1128M11.8315 7.28464H13.294C13.3755 7.28544 13.4468 7.34144 13.4683 7.42208C13.5003 7.48225 13.523 7.54713 13.5355 7.6144C13.5542 7.70288 13.5676 7.79218 13.5757 7.88232C13.5845 7.97848 13.589 8.08152 13.5891 8.19144C13.8399 7.89238 14.1423 7.6432 14.4813 7.4564C14.8621 7.24557 15.2896 7.13908 15.7224 7.14728C15.7388 7.14488 15.7555 7.14643 15.7712 7.1518C15.787 7.15717 15.8012 7.16622 15.813 7.17822C15.8247 7.19022 15.8335 7.20484 15.8387 7.22094C15.844 7.23704 15.8455 7.25416 15.8431 7.27096V8.93336C15.8431 8.99752 15.7984 9.02957 15.709 9.02952C15.1685 8.99527 14.6279 9.09419 14.1325 9.318C13.9642 9.39266 13.8115 9.49996 13.683 9.634V13.9892C13.683 14.0716 13.6473 14.1128 13.5757 14.1128H11.9523C11.934 14.1155 11.9154 14.1138 11.898 14.1078C11.8805 14.1019 11.8646 14.0918 11.8516 14.0785C11.8386 14.0652 11.8288 14.0489 11.823 14.031C11.8172 14.0131 11.8155 13.9941 11.8181 13.9754V9.24928C11.8181 9.13424 11.8174 9.01538 11.8159 8.89272L11.8132 8.706C11.8127 8.67437 11.8121 8.64253 11.8114 8.61048C11.808 8.44343 11.8033 8.27641 11.7975 8.10944L11.7912 7.94416C11.7853 7.75541 11.7674 7.56725 11.7376 7.38088C11.7345 7.36842 11.7344 7.35537 11.7373 7.34286C11.7402 7.33034 11.746 7.31874 11.7543 7.30906C11.7626 7.29939 11.773 7.29193 11.7848 7.28734C11.7965 7.28275 11.8092 7.28116 11.8216 7.28272L11.8315 7.28464Z" fill="white"/>
</svg>
