<svg width="20" height="20" viewBox="0 0 20 20" fill="none" xmlns="http://www.w3.org/2000/svg">
<path d="M13.3332 12.5L15.8332 10L14.9582 9.10417L13.9582 10.1042V7.5H12.7082V10.1042L11.7082 9.10417L10.8332 10L13.3332 12.5ZM3.33317 16.6667C2.87484 16.6667 2.48262 16.5036 2.1565 16.1775C1.83039 15.8514 1.66706 15.4589 1.6665 15V5C1.6665 4.54167 1.82984 4.14944 2.1565 3.82333C2.48317 3.49722 2.87539 3.33389 3.33317 3.33333H16.6665C17.1248 3.33333 17.5173 3.49667 17.844 3.82333C18.1707 4.15 18.3337 4.54222 18.3332 5V15C18.3332 15.4583 18.1701 15.8508 17.844 16.1775C17.5179 16.5042 17.1254 16.6672 16.6665 16.6667H3.33317ZM4.58317 12.5H5.83317V8.75H6.6665V11.25H7.9165V8.75H8.74984V12.5H9.99984V8.33333C9.99984 8.09722 9.91984 7.89944 9.75984 7.74C9.59984 7.58055 9.40206 7.50055 9.1665 7.5H5.4165C5.18039 7.5 4.98262 7.58 4.82317 7.74C4.66373 7.9 4.58373 8.09778 4.58317 8.33333V12.5Z" fill="white"/>
</svg>
