<svg width="24" height="24" viewBox="0 0 24 24" fill="none" xmlns="http://www.w3.org/2000/svg">
<g clip-path="url(#clip0_388_26)">
<path d="M4.25006 1.3H19.7499C21.5478 1.3 23 2.75223 23 4.55007V19.4499C23 21.2478 21.5478 22.7 19.7499 22.7H4.25006C2.45222 22.7 1 21.2478 1 19.4499V4.55007C1 2.75223 2.45222 1.3 4.25006 1.3Z" stroke="white" stroke-width="2"/>
<path d="M8.59997 6.24994C8.29997 6.24994 7.99996 6.24994 7.69003 6.26006C7.3799 6.27 7.08984 6.27 6.81984 6.28013C6.54984 6.29006 6.2999 6.29006 6.0599 6.3C5.82984 6.30994 5.6699 6.30994 5.49984 6.30994C5.4299 6.30994 5.3999 6.34988 5.3999 6.42V16.71C5.3999 16.8 5.43984 16.8401 5.5199 16.8401H7.45996C7.5299 16.83 7.57997 16.77 7.56984 16.7001V13.4901C7.75978 13.4901 7.89984 13.4901 7.99996 13.5C8.0999 13.5099 8.25984 13.5099 8.49984 13.5099C9.31997 13.5099 10.07 13.4199 10.7498 13.17C11.3999 12.93 11.96 12.51 12.3599 11.9499C12.7599 11.3899 12.9599 10.6799 12.9599 9.81994C12.9599 9.36994 12.88 8.94 12.73 8.52C12.5711 8.09211 12.3221 7.70334 11.9999 7.38C11.6196 7.01056 11.1619 6.73041 10.6598 6.55988C10.0998 6.34988 9.4199 6.24994 8.59997 6.24994ZM8.82309 8.21963C9.17934 8.22638 9.52622 8.28863 9.84984 8.41988C10.1399 8.52994 10.3799 8.73 10.55 8.98988C10.7095 9.25883 10.7892 9.56757 10.78 9.88013C10.78 10.32 10.6799 10.6601 10.4699 10.9101C10.2498 11.16 9.96984 11.3501 9.64996 11.4401C9.27984 11.5601 8.88984 11.6199 8.49984 11.6199H7.96978C7.84978 11.6199 7.72003 11.61 7.57996 11.6001V8.24006C7.6499 8.22994 7.78996 8.22 7.99003 8.23013C8.17996 8.22 8.40984 8.22 8.6699 8.22C8.72115 8.21875 8.77221 8.21863 8.82309 8.21963ZM17.21 8.73019C16.4999 8.73019 15.9098 8.84006 15.44 9.08006C15.01 9.28013 14.6399 9.6 14.39 9.99994C14.17 10.3701 14.0498 10.7799 14.0498 11.2101C14.0413 11.5638 14.1203 11.9142 14.2799 12.2301C14.4669 12.5664 14.7266 12.8567 15.04 13.08C15.4799 13.3809 15.9573 13.6229 16.46 13.8C16.9499 13.9899 17.2799 14.1399 17.44 14.2699C17.6 14.4 17.68 14.5299 17.68 14.67C17.68 14.85 17.57 15.0201 17.41 15.09C17.23 15.18 16.96 15.2301 16.58 15.2301C16.18 15.2301 15.7799 15.18 15.3998 15.0801C14.9634 14.9826 14.545 14.8173 14.1599 14.5901C14.1299 14.5701 14.0999 14.5601 14.0699 14.5802C14.0399 14.6001 14.03 14.64 14.03 14.67V16.41C14.02 16.4901 14.0699 16.56 14.14 16.5999C14.4643 16.7514 14.8073 16.8591 15.16 16.92C15.61 17.01 16.0598 17.0499 16.5198 17.0499C17.2398 17.0499 17.84 16.9401 18.3299 16.7301C18.7799 16.5501 19.1699 16.2401 19.4498 15.84C19.712 15.4466 19.8481 14.9827 19.8398 14.5101C19.8497 14.153 19.7707 13.7991 19.61 13.4801C19.4198 13.14 19.1498 12.8601 18.8198 12.6501C18.3371 12.3469 17.8202 12.1018 17.2799 11.9199C17.0386 11.8201 16.8017 11.71 16.5698 11.5899C16.4399 11.52 16.3199 11.43 16.2299 11.3199C16.1699 11.2399 16.13 11.1501 16.13 11.0601C16.13 10.9701 16.16 10.8701 16.2098 10.7901C16.28 10.6901 16.3898 10.62 16.5198 10.59C16.7099 10.5401 16.9199 10.5099 17.1198 10.5199C17.4998 10.5199 17.8698 10.5699 18.2399 10.65C18.58 10.7199 18.8999 10.83 19.1999 10.9901C19.2398 11.01 19.2899 11.01 19.3799 10.9901C19.3955 10.9785 19.4082 10.9634 19.4169 10.946C19.4256 10.9287 19.4301 10.9095 19.43 10.89V9.26006C19.43 9.21994 19.4198 9.18 19.4099 9.14006C19.3898 9.10013 19.3499 9.06 19.31 9.05006C19.0342 8.93733 18.7452 8.86003 18.4499 8.82C18.0393 8.76021 17.6249 8.73032 17.21 8.73019Z" fill="white"/>
</g>
<defs>
<clipPath id="clip0_388_26">
<rect width="24" height="24" fill="white"/>
</clipPath>
</defs>
</svg>
