<svg width="20" height="20" viewBox="0 0 20 20" fill="none" xmlns="http://www.w3.org/2000/svg">
<rect x="0.5" y="0.5" width="19" height="19" stroke="white"/>
<path d="M7.16672 5.20828C6.91672 5.20828 6.66672 5.20828 6.40844 5.21672C6.15 5.225 5.90828 5.225 5.68328 5.23344C5.45828 5.24172 5.25 5.24172 5.05 5.25C4.85828 5.25828 4.725 5.25828 4.58328 5.25828C4.525 5.25828 4.5 5.29156 4.5 5.35V13.925C4.5 14 4.53328 14.0334 4.6 14.0334H6.21672C6.275 14.025 6.31672 13.975 6.30828 13.9167V11.2417C6.46656 11.2417 6.58328 11.2417 6.66672 11.25C6.75 11.2583 6.88328 11.2583 7.08328 11.2583C7.76672 11.2583 8.39172 11.1833 8.95828 10.975C9.5 10.775 9.96672 10.425 10.3 9.95828C10.6333 9.49162 10.8 8.89995 10.8 8.18328C10.8 7.80828 10.7334 7.45 10.6084 7.1C10.476 6.74342 10.2685 6.41945 10 6.15C9.6831 5.84213 9.30163 5.60867 8.88328 5.46656C8.41656 5.29156 7.85 5.20828 7.16672 5.20828ZM7.35266 6.84969C7.64953 6.85531 7.93859 6.90719 8.20828 7.01656C8.45 7.10828 8.65 7.275 8.79172 7.49156C8.92463 7.71569 8.99112 7.97298 8.98344 8.23344C8.98344 8.6 8.9 8.88344 8.725 9.09172C8.54156 9.3 8.30828 9.45844 8.04172 9.53344C7.73328 9.63344 7.40828 9.68328 7.08328 9.68328H6.64156C6.54156 9.68328 6.43344 9.675 6.31672 9.66672V6.86672C6.375 6.85828 6.49172 6.85 6.65844 6.85844C6.81672 6.85 7.00828 6.85 7.225 6.85C7.26771 6.84896 7.31026 6.84886 7.35266 6.84969ZM14.3417 7.27516C13.75 7.27516 13.2583 7.36672 12.8667 7.56672C12.5084 7.73344 12.2 8 11.9917 8.33328C11.8084 8.64172 11.7083 8.98328 11.7083 9.34172C11.7012 9.63652 11.767 9.92852 11.9 10.1917C12.0559 10.472 12.2723 10.7139 12.5334 10.9C12.9 11.1507 13.2978 11.3524 13.7167 11.5C14.125 11.6583 14.4 11.7833 14.5334 11.8916C14.6667 12 14.7334 12.1083 14.7334 12.225C14.7334 12.375 14.6417 12.5167 14.5084 12.575C14.3584 12.65 14.1334 12.6917 13.8167 12.6917C13.4834 12.6917 13.15 12.65 12.8333 12.5667C12.4696 12.4855 12.121 12.3477 11.8 12.1584C11.775 12.1417 11.75 12.1334 11.725 12.1502C11.7 12.1667 11.6917 12.2 11.6917 12.225V13.675C11.6834 13.7417 11.725 13.8 11.7834 13.8333C12.0537 13.9595 12.3395 14.0492 12.6334 14.1C13.0084 14.175 13.3833 14.2083 13.7666 14.2083C14.3666 14.2083 14.8667 14.1167 15.275 13.9417C15.65 13.7917 15.975 13.5334 16.2083 13.2C16.4268 12.8722 16.5401 12.4856 16.5333 12.0917C16.5415 11.7942 16.4757 11.4992 16.3417 11.2334C16.1833 10.95 15.9583 10.7167 15.6833 10.5417C15.281 10.2891 14.8502 10.0848 14.4 9.93328C14.1989 9.85007 14.0015 9.75832 13.8083 9.65828C13.7 9.6 13.6 9.525 13.525 9.43328C13.475 9.36656 13.4417 9.29172 13.4417 9.21672C13.4417 9.14172 13.4667 9.05844 13.5083 8.99172C13.5667 8.90844 13.6583 8.85 13.7666 8.825C13.925 8.78344 14.1 8.75828 14.2666 8.76656C14.5833 8.76656 14.8916 8.80828 15.2 8.875C15.4834 8.93328 15.75 9.025 16 9.15844C16.0333 9.175 16.075 9.175 16.15 9.15844C16.163 9.14879 16.1736 9.1362 16.1808 9.12171C16.1881 9.10721 16.1918 9.09121 16.1917 9.075V7.71672C16.1917 7.68328 16.1833 7.65 16.175 7.61672C16.1583 7.58344 16.125 7.55 16.0917 7.54172C15.8619 7.44778 15.621 7.38336 15.375 7.35C15.0328 7.30018 14.6875 7.27527 14.3417 7.27516Z" fill="white"/>
</svg>
