<svg width="24" height="22" viewBox="0 0 24 22" fill="none" xmlns="http://www.w3.org/2000/svg">
<path d="M14.23 11.0026C14.23 11.5954 13.9946 12.164 13.5754 12.5833C13.1563 13.0026 12.5879 13.2383 11.995 13.2386C11.402 13.2386 10.8332 13.003 10.4139 12.5837C9.99458 12.1644 9.759 11.5956 9.759 11.0026C9.759 10.4097 9.99444 9.84116 10.4136 9.42186C10.8327 9.00255 11.4011 8.76686 11.994 8.76659C12.587 8.76659 13.1558 9.00217 13.5751 9.4215C13.9944 9.84083 14.23 10.4096 14.23 11.0026ZM16.878 0.312595C15.532 0.312595 13.771 1.27259 11.99 2.93459C10.21 1.28159 8.448 0.332595 7.103 0.332595C6.693 0.332595 6.32 0.425595 5.997 0.610595C4.622 1.40359 4.314 3.87459 5.024 6.97559C1.98 7.9156 0 9.41859 0 11.0026C0 12.5926 1.99 14.0996 5.043 15.0326C4.339 18.1456 4.653 20.6206 6.031 21.4126C6.351 21.5996 6.721 21.6876 7.133 21.6876C8.478 21.6876 10.24 20.7276 12.021 19.0636C13.801 20.7176 15.563 21.6666 16.908 21.6666C17.318 21.6666 17.691 21.5766 18.014 21.3916C19.388 20.5996 19.697 18.1286 18.987 15.0266C22.02 14.0946 24 12.5886 24 11.0026C24 9.41259 22.01 7.90559 18.957 6.97059C19.661 3.86059 19.347 1.38359 17.969 0.590595C17.6358 0.403387 17.2601 0.307487 16.878 0.312595ZM16.873 1.40259V1.40859C17.098 1.40859 17.279 1.45259 17.431 1.53559C18.097 1.91759 18.386 3.37059 18.161 5.23959C18.107 5.69959 18.019 6.1846 17.911 6.67959C16.8885 6.43225 15.8505 6.25385 14.804 6.14559C14.1806 5.2858 13.5007 4.46834 12.769 3.69859C14.361 2.21859 15.856 1.40659 16.874 1.40359L16.873 1.40259ZM7.103 1.42259C8.115 1.42259 9.617 2.23059 11.213 3.70259C10.527 4.4226 9.843 5.23959 9.193 6.14459C8.14423 6.25237 7.10411 6.43213 6.08 6.68259C5.97261 6.21361 5.88784 5.73973 5.826 5.26259C5.596 3.39459 5.88 1.94259 6.54 1.55559C6.73 1.46559 6.94 1.42759 7.103 1.42259ZM11.985 4.47259C12.441 4.94193 12.8943 5.46326 13.345 6.03659C12.905 6.01659 12.455 6.00259 12 6.00259C11.5393 6.00193 11.086 6.01326 10.64 6.03659C11.08 5.46459 11.535 4.94159 11.985 4.47259ZM12 7.0986C12.74 7.0986 13.477 7.13259 14.202 7.19159C14.6087 7.77426 15.003 8.39426 15.385 9.05159C15.7563 9.69226 16.0957 10.3409 16.403 10.9976C16.095 11.6526 15.757 12.3076 15.39 12.9476C15.01 13.6076 14.617 14.2356 14.21 14.8176C12.7422 14.9462 11.2661 14.9479 9.798 14.8226C9.37851 14.219 8.98385 13.5984 8.615 12.9626C8.24367 12.3219 7.90433 11.6733 7.597 11.0166C7.90582 10.3507 8.24381 9.69874 8.61 9.06259C8.99 8.40259 9.383 7.7766 9.79 7.19459C10.5249 7.12934 11.2622 7.09664 12 7.09659V7.0986ZM8.365 7.35259C8.125 7.72959 7.885 8.11559 7.661 8.51259C7.437 8.90259 7.22533 9.29393 7.026 9.68659C6.761 9.03059 6.536 8.37659 6.35 7.73959C6.99 7.58959 7.665 7.4556 8.365 7.35259ZM15.625 7.35259C16.321 7.45459 16.9897 7.58359 17.631 7.73959C17.451 8.3716 17.226 9.02159 16.971 9.67259C16.5629 8.87664 16.1139 8.10228 15.626 7.35259H15.625ZM18.688 8.0276C19.1727 8.17826 19.631 8.34426 20.063 8.52559C21.795 9.26559 22.915 10.2336 22.915 11.0016C22.91 11.7696 21.79 12.7416 20.058 13.4766C19.638 13.6566 19.178 13.8186 18.703 13.9696C18.4025 12.9531 18.0351 11.9575 17.603 10.9896C18.053 9.97259 18.413 8.9796 18.688 8.0256V8.0276ZM5.293 8.03159C5.571 8.99159 5.938 9.98859 6.393 11.0116C5.96355 11.9736 5.60069 12.9639 5.307 13.9756C4.823 13.8256 4.363 13.6576 3.937 13.4756C2.205 12.7386 1.085 11.7696 1.085 11.0016C1.085 10.2336 2.205 9.25959 3.937 8.52559C4.357 8.34559 4.817 8.18359 5.293 8.03159ZM16.971 12.3116C17.236 12.9686 17.461 13.6236 17.647 14.2596C17.007 14.4166 16.331 14.5496 15.631 14.6496C16.1181 13.894 16.5647 13.1136 16.971 12.3116ZM7.026 12.3316C7.226 12.7236 7.436 13.1146 7.666 13.5066C7.896 13.8973 8.131 14.2783 8.371 14.6496C7.69672 14.5521 7.02733 14.4233 6.365 14.2636C6.545 13.6336 6.771 12.9816 7.025 12.3306L7.026 12.3316ZM17.92 15.3186C18.032 15.8116 18.12 16.2866 18.174 16.7416C18.404 18.6096 18.12 20.0616 17.46 20.4496C17.313 20.5396 17.122 20.5776 16.897 20.5776C15.885 20.5776 14.383 19.7706 12.787 18.2976C13.473 17.5776 14.157 16.7616 14.807 15.8576C15.914 15.7396 16.961 15.5586 17.92 15.3186ZM6.09 15.3286C7.05 15.5626 8.096 15.7436 9.197 15.8606C9.857 16.7656 10.542 17.5876 11.232 18.3066C9.637 19.7896 8.14 20.6016 7.122 20.6016C6.92975 20.6025 6.7401 20.5573 6.569 20.4696C5.903 20.0896 5.614 18.6356 5.839 16.7666C5.893 16.3066 5.982 15.8226 6.09 15.3286ZM10.65 15.9686C11.0907 15.9899 11.539 16.0013 11.995 16.0026C12.4557 16.0033 12.909 15.9919 13.355 15.9686C12.915 16.5406 12.46 17.0636 12.01 17.5336C11.554 17.0629 11.1007 16.5413 10.65 15.9686Z" fill="white"/>
</svg>
