<svg width="20" height="20" viewBox="0 0 20 20" fill="none" xmlns="http://www.w3.org/2000/svg">
<path d="M9.99984 1.66667C11.0942 1.66667 12.1778 1.88222 13.1889 2.30101C14.1999 2.71979 15.1186 3.33362 15.8924 4.10744C16.6662 4.88127 17.28 5.79993 17.6988 6.81097C18.1176 7.82202 18.3332 8.90565 18.3332 10C18.3332 12.2101 17.4552 14.3298 15.8924 15.8926C14.3296 17.4554 12.21 18.3333 9.99984 18.3333C8.90549 18.3333 7.82185 18.1178 6.81081 17.699C5.79976 17.2802 4.8811 16.6664 4.10728 15.8926C2.54448 14.3298 1.6665 12.2101 1.6665 10C1.6665 7.78986 2.54448 5.67025 4.10728 4.10744C5.67008 2.54464 7.7897 1.66667 9.99984 1.66667ZM8.33317 12.775C8.4665 13.225 8.44984 13.6417 8.33317 14.025C8.33317 14.0667 8.29984 14.1083 8.28317 14.1667C8.2665 14.1667 8.24984 14.225 8.22484 14.2667C8.13317 14.4667 7.99984 14.6583 7.8415 14.825C7.35817 15.3583 6.6665 15.5583 6.3915 15.3917C6.07484 15.2083 6.24984 14.4583 6.79984 13.8667C7.39984 13.2333 8.2665 12.8167 8.2665 12.8167L8.33317 12.775ZM15.2248 5.23333C14.8498 3.75 12.3915 3.26667 10.0748 4.09167C8.6915 4.58333 7.1915 5.35 6.1165 6.35833C4.8415 7.55833 4.63317 8.6 4.7165 9.03333C4.99984 10.5667 7.1165 11.575 7.98317 12.3167V12.325C7.73317 12.45 5.8665 13.3917 5.4165 14.3583C4.9665 15.375 5.49984 16.1083 5.83317 16.2083C6.94984 16.5083 8.07484 15.9667 8.67484 15.0583C9.25817 14.1917 9.2165 13.0667 8.95817 12.5C9.30817 12.4167 9.7165 12.375 10.2332 12.4333C11.6998 12.6083 11.9832 13.5167 11.9248 13.9C11.8748 14.2833 11.5665 14.4917 11.4665 14.5583C11.3665 14.6167 11.3332 14.6417 11.3415 14.6917C11.3498 14.7583 11.3998 14.7583 11.4832 14.7417C11.6082 14.7167 12.2582 14.4333 12.2832 13.725C12.3165 12.825 11.4582 11.825 9.9415 11.85C9.3165 11.8667 8.92484 11.925 8.6415 12.0333L8.57484 11.9583C7.63317 10.9583 5.89984 10.25 5.97484 8.9C5.99984 8.40833 6.1665 7.125 9.30817 5.55833C11.8748 4.275 13.9332 4.625 14.2915 5.41667C14.7998 6.525 13.1915 8.6 10.5248 8.9C9.50817 9.01667 8.9665 8.61667 8.83317 8.475C8.6915 8.33333 8.67484 8.30833 8.62484 8.33333C8.53317 8.39167 8.5915 8.525 8.62484 8.60833C8.69984 8.81667 9.03317 9.16667 9.58317 9.36667C10.0748 9.525 11.2748 9.61667 12.7165 9.05833C14.3332 8.43333 15.5998 6.69167 15.2248 5.23333Z" fill="white"/>
</svg>
