<svg width="24" height="24" viewBox="0 0 24 24" fill="none" xmlns="http://www.w3.org/2000/svg">
<path d="M12.1283 14.025C11.7676 14.1907 11.3723 14.4067 10.5811 14.841C10.2811 15.0097 9.9676 15.1785 9.67585 15.3375C9.6556 15.3172 9.6346 15.2917 9.61435 15.2707C8.0491 13.5982 5.1541 12.417 5.2771 10.1707C5.32285 9.3525 5.6041 7.2045 10.8368 4.596C15.1433 2.4735 18.5701 3.0615 19.1618 4.36575C20.0123 6.225 17.3251 9.68475 12.8776 10.1865C12.3854 10.2863 11.877 10.2742 11.3901 10.1511C10.9031 10.0281 10.4501 9.79717 10.0643 9.4755C9.82885 9.21975 9.7936 9.20475 9.7066 9.25575C9.56335 9.33075 9.6556 9.5625 9.7066 9.69525C9.87625 10.0024 10.1058 10.2724 10.3816 10.4894C10.6574 10.7063 10.9739 10.8657 11.3123 10.9582C13.0626 11.3365 14.8874 11.1558 16.5293 10.4415C19.2248 9.39825 21.3293 6.498 20.7128 4.0665C20.0941 1.60125 16.0021 0.788248 12.1306 2.16375C9.70605 2.98079 7.46599 4.26698 5.5381 5.949C3.4051 7.944 3.0676 9.678 3.2056 10.404C3.7021 12.9817 7.2556 14.6595 8.6806 15.9022C8.6066 15.9422 8.54185 15.978 8.48635 16.0095C7.77535 16.3627 5.06485 17.7795 4.3891 19.278C3.62185 20.976 4.5121 22.1932 5.1001 22.3567C5.98621 22.5692 6.91657 22.4996 7.76116 22.1575C8.60575 21.8154 9.32236 21.218 9.81085 20.4487C10.2258 19.811 10.4806 19.0825 10.5536 18.3251C10.6266 17.5678 10.5156 16.804 10.2301 16.0987C10.3985 15.9643 10.5782 15.8446 10.7671 15.741C11.1301 15.5265 11.4758 15.315 11.7826 15.1515C12.8331 14.6601 13.9791 14.4068 15.1388 14.4097C17.5733 14.6962 18.0541 16.215 17.9618 16.8547C17.9186 17.0817 17.8272 17.2967 17.694 17.4854C17.5607 17.6742 17.3887 17.8322 17.1893 17.949C17.0206 18.0562 16.9643 18.0922 16.9793 18.1687C16.9996 18.2812 17.0813 18.276 17.2246 18.2557C17.5904 18.1401 17.9126 17.9166 18.149 17.6145C18.3854 17.3124 18.5249 16.9458 18.5491 16.563C18.6241 15.063 17.1938 13.4175 14.6618 13.4325C13.9038 13.4347 13.1534 13.5842 12.4523 13.8727C12.3398 13.9192 12.2306 13.9692 12.1246 14.0227L12.1283 14.025ZM8.5096 19.9042C7.7011 20.784 6.5761 21.1162 6.0901 20.835C5.5651 20.535 5.77285 19.2337 6.7651 18.303C7.35228 17.7729 7.98752 17.2986 8.6626 16.8862C8.78035 16.8112 8.95435 16.7122 9.1636 16.5862L9.21985 16.5555L9.34285 16.4805C9.51966 17.0738 9.53568 17.7035 9.38927 18.3051C9.24287 18.9066 8.93929 19.4585 8.5096 19.9042Z" fill="white"/>
</svg>
